<svg width="32" height="32" viewBox="0 0 32 32" xmlns="http://www.w3.org/2000/svg">
  <defs>
    <linearGradient id="gradient" x1="0%" y1="0%" x2="100%" y2="100%">
      <stop offset="0%" style="stop-color:#10b981;stop-opacity:1" />
      <stop offset="100%" style="stop-color:#0d9488;stop-opacity:1" />
    </linearGradient>
  </defs>
  
  <!-- Background with rounded corners -->
  <rect width="32" height="32" rx="7" fill="url(#gradient)" />
  
  <!-- Wave design matching your logo -->
  <g transform="translate(6, 8)" fill="white">
    <!-- Top wave -->
    <path d="M2 4c0-1.1.9-2 2-2h12c1.1 0 2 .9 2 2s-.9 2-2 2H4c-1.1 0-2-.9-2-2z" opacity="0.9"/>
    <!-- Middle wave -->
    <path d="M0 8c0-1.1.9-2 2-2h16c1.1 0 2 .9 2 2s-.9 2-2 2H2c-1.1 0-2-.9-2-2z" opacity="1"/>
    <!-- Bottom wave -->
    <path d="M3 12c0-1.1.9-2 2-2h10c1.1 0 2 .9 2 2s-.9 2-2 2H5c-1.1 0-2-.9-2-2z" opacity="0.8"/>
  </g>
</svg>
