<svg width="32" height="32" viewBox="0 0 32 32" xmlns="http://www.w3.org/2000/svg">
  <defs>
    <linearGradient id="gradient" x1="0%" y1="0%" x2="100%" y2="100%">
      <stop offset="0%" style="stop-color:#10b981;stop-opacity:1" />
      <stop offset="100%" style="stop-color:#0d9488;stop-opacity:1" />
    </linearGradient>
  </defs>
  <rect width="32" height="32" rx="6" fill="url(#gradient)" />
  <g transform="translate(8, 8)" fill="white">
    <path d="M2 6.5C2 5.67 2.67 5 3.5 5h9c.83 0 1.5.67 1.5 1.5 0 .83-.67 1.5-1.5 1.5h-9C2.67 8 2 7.33 2 6.5z" opacity="0.8"/>
    <path d="M1 10.5C1 9.67 1.67 9 2.5 9h11c.83 0 1.5.67 1.5 1.5 0 .83-.67 1.5-1.5 1.5h-11C1.67 12 1 11.33 1 10.5z" opacity="0.9"/>
    <path d="M3 14.5c0-.83.67-1.5 1.5-1.5h7c.83 0 1.5.67 1.5 1.5 0 .83-.67 1.5-1.5 1.5h-7c-.83 0-1.5-.67-1.5-1.5z" opacity="0.7"/>
  </g>
</svg>
